<svg width="512" height="512" viewBox="0 0 512 512" fill="none" xmlns="http://www.w3.org/2000/svg">
  <!-- Background circle -->
  <circle cx="256" cy="256" r="256" fill="#1a1a1a"/>
  
  <!-- MCP acronym text -->
  <text x="256" y="200" font-family="Arial, sans-serif" font-size="80" font-weight="bold" text-anchor="middle" fill="#ffffff">MCP</text>
  
  <!-- Gear icon -->
  <g transform="translate(216, 280)">
    <circle cx="40" cy="40" r="16" fill="none" stroke="#4CAF50" stroke-width="4"/>
    <g stroke="#4CAF50" stroke-width="3" stroke-linecap="round">
      <!-- Gear teeth -->
      <line x1="40" y1="8" x2="40" y2="16"/>
      <line x1="56.7" y1="12.3" x2="51.8" y2="19.2"/>
      <line x1="67.7" y1="32.3" x2="60.8" y2="27.2"/>
      <line x1="72" y1="40" x2="64" y2="40"/>
      <line x1="67.7" y1="47.7" x2="60.8" y2="52.8"/>
      <line x1="56.7" y1="67.7" x2="51.8" y2="60.8"/>
      <line x1="40" y1="72" x2="40" y2="64"/>
      <line x1="23.3" y1="67.7" x2="28.2" y2="60.8"/>
      <line x1="12.3" y1="47.7" x2="19.2" y2="52.8"/>
      <line x1="8" y1="40" x2="16" y2="40"/>
      <line x1="12.3" y1="32.3" x2="19.2" y2="27.2"/>
      <line x1="23.3" y1="12.3" x2="28.2" y2="19.2"/>
    </g>
  </g>
  
  <!-- Connection nodes and lines -->
  <g stroke="#2196F3" stroke-width="3" fill="#2196F3">
    <!-- Node 1 -->
    <circle cx="120" cy="350" r="8"/>
    <!-- Node 2 -->
    <circle cx="200" cy="380" r="8"/>
    <!-- Node 3 -->
    <circle cx="320" cy="380" r="8"/>
    <!-- Node 4 -->
    <circle cx="400" cy="350" r="8"/>
    
    <!-- Connection lines -->
    <line x1="120" y1="350" x2="200" y2="380" stroke="#2196F3" stroke-width="2"/>
    <line x1="200" y1="380" x2="256" y2="320" stroke="#2196F3" stroke-width="2"/>
    <line x1="256" y1="320" x2="320" y2="380" stroke="#2196F3" stroke-width="2"/>
    <line x1="320" y1="380" x2="400" y2="350" stroke="#2196F3" stroke-width="2"/>
  </g>
  
  <!-- Subtitle text -->
  <text x="256" y="450" font-family="Arial, sans-serif" font-size="24" text-anchor="middle" fill="#888888">Config Manager</text>
</svg>